External Loads File
version=1
nRows=54
nColumns=13
Range=5.000000e-03-10 seconds
endheader
time 	forceRightX 	forceRightY 	forceRightZ 	pointRightX 	pointRightY 	pointRightZ 	forceLeftX 	forceLeftY 	forceLeftZ 	pointLeftX 	pointLeftY 	pointLeftZ 		
0.005000 -20.358109 245.515412 -0.000000 0.374917 0.356773 -0.096871 72.757011 292.821508 -0.000000 0.075986 0.288710 -0.336223
0.010000 -21.983487 245.365462 -0.000000 0.374913 0.356742 -0.096874 71.827950 291.314265 -0.000000 0.075980 0.288732 -0.336210
0.015000 -23.486885 245.241091 -0.000000 0.374877 0.356743 -0.096870 70.895590 289.957695 -0.000000 0.075992 0.288718 -0.336216
0.020000 -24.714681 245.158914 -0.000000 0.374499 0.356742 -0.096685 70.033869 288.842746 -0.000000 0.076008 0.288706 -0.336224
0.025000 -25.674724 245.116584 -0.000000 0.374440 0.357086 -0.096665 69.172649 288.028315 -0.000000 0.076076 0.288806 -0.336418
0.030000 -26.141743 245.130112 -0.000000 0.374420 0.357125 -0.096553 68.574702 287.431002 -0.000000 0.076007 0.288709 -0.336348
0.035000 -26.280899 245.173552 -0.000000 0.374545 0.357178 -0.096605 68.064284 287.016398 -0.000000 0.076014 0.288663 -0.336358
0.040000 -26.318980 245.216777 -0.000000 0.374509 0.357266 -0.096587 67.400755 286.737383 -0.000000 0.076039 0.288612 -0.336359
0.045000 -26.294720 245.250010 -0.000000 0.374489 0.357340 -0.096592 66.606249 286.513302 -0.000000 0.076069 0.288552 -0.336369
0.050000 -26.262742 245.256702 -0.000000 0.374456 0.357385 -0.096604 65.737834 286.314161 -0.000000 0.076078 0.288478 -0.336382
0.055000 -26.282007 245.212981 -0.000000 0.374442 0.357473 -0.096592 64.848697 286.137817 -0.000000 0.076103 0.288419 -0.336375
0.060000 -26.337773 245.101862 -0.000000 0.374438 0.357545 -0.096593 64.022346 285.954152 -0.000000 0.076115 0.288347 -0.336377
0.065000 -26.427557 244.914461 -0.000000 0.374426 0.357592 -0.096577 63.266323 285.725178 -0.000000 0.076137 0.288268 -0.336373
0.070000 -26.546807 244.654418 -0.000000 0.374438 0.357650 -0.096586 62.571551 285.426837 -0.000000 0.076142 0.288196 -0.336382
0.075000 -26.656058 244.334544 -0.000000 0.374450 0.357705 -0.096582 62.009767 285.056032 -0.000000 0.076136 0.288152 -0.336375
0.080000 -26.796306 243.960698 -0.000000 0.374458 0.357773 -0.096568 61.607102 284.650757 -0.000000 0.076131 0.288089 -0.336367
0.085000 -26.929518 243.553650 -0.000000 0.374476 0.357847 -0.096552 61.466945 284.232188 -0.000000 0.076131 0.288037 -0.336359
0.090000 -27.042415 243.135805 -0.000000 0.374497 0.357911 -0.096538 61.601289 283.821369 -0.000000 0.076135 0.287974 -0.336360
0.095000 -27.129826 242.723562 -0.000000 0.374499 0.358004 -0.096528 61.964015 283.435293 -0.000000 0.076120 0.287920 -0.336379
0.100000 -27.170812 242.330446 -0.000000 0.374489 0.358095 -0.096512 62.494635 283.085714 -0.000000 0.076113 0.287860 -0.336362
0.105000 -27.326367 241.951818 -0.000000 0.373514 0.358187 -0.097600 62.884519 282.829916 -0.000000 0.076115 0.287793 -0.336351
0.110000 -27.319088 241.632680 -0.000000 0.373511 0.358331 -0.097548 63.335478 282.602167 -0.000000 0.076120 0.287700 -0.336350
0.115000 -27.275290 241.366914 -0.000000 0.373479 0.358446 -0.097555 63.654798 282.434118 -0.000000 0.076119 0.287581 -0.336366
0.120000 -26.990438 241.182230 -0.000000 0.374536 0.358541 -0.096570 64.159927 282.280278 -0.000000 0.076120 0.287491 -0.336360
0.125000 -26.927878 241.035603 -0.000000 0.374502 0.358664 -0.096580 64.451221 282.285568 -0.000000 0.076127 0.287392 -0.336365
0.130000 -26.913322 240.962036 -0.000000 0.374452 0.358785 -0.096592 64.819755 282.422933 -0.000000 0.076133 0.287243 -0.336367
0.135000 -26.873444 240.984185 -0.000000 0.374409 0.358905 -0.096605 65.321933 282.671843 -0.000000 0.076153 0.287122 -0.336364
0.140000 -26.861552 241.099212 -0.000000 0.374357 0.359058 -0.096594 65.799131 283.024762 -0.000000 0.076177 0.286979 -0.336382
0.145000 -26.822882 241.300591 -0.000000 0.374300 0.359197 -0.096612 66.249038 283.438137 -0.000000 0.076206 0.286841 -0.336373
0.150000 -26.795395 241.561437 -0.000000 0.374257 0.359347 -0.096620 66.624279 283.898163 -0.000000 0.076229 0.286686 -0.336380
0.155000 -26.767389 241.857573 -0.000000 0.374210 0.359481 -0.096630 66.960308 284.373546 -0.000000 0.076267 0.286520 -0.336358
0.160000 -26.707878 242.165291 -0.000000 0.374170 0.359614 -0.096656 67.304922 284.811463 -0.000000 0.076296 0.286402 -0.336353
0.165000 -26.337853 242.486820 -0.000000 0.374148 0.359698 -0.096662 67.975294 285.081477 -0.000000 0.076327 0.286635 -0.336354
0.170000 -26.182109 242.739998 -0.000000 0.374104 0.359760 -0.096658 68.308147 285.291517 -0.000000 0.076359 0.286550 -0.336349
0.175000 -25.944585 242.939172 -0.000000 0.374106 0.359813 -0.096649 68.573511 285.345296 -0.000000 0.076375 0.286489 -0.336345
0.180000 -25.641120 243.067294 -0.000000 0.374102 0.359855 -0.096654 68.692146 285.253444 -0.000000 0.076387 0.286444 -0.336348
0.185000 -25.290104 243.105160 -0.000000 0.374110 0.359876 -0.096665 68.671789 285.037383 -0.000000 0.076399 0.286415 -0.336341
0.190000 -24.938671 243.029828 -0.000000 0.374134 0.359886 -0.096663 68.576839 284.722168 -0.000000 0.076404 0.286405 -0.336328
0.195000 -24.642041 242.819979 -0.000000 0.374172 0.359912 -0.096670 68.455853 284.317144 -0.000000 0.076424 0.286430 -0.336344
0.200000 -24.400422 242.464375 -0.000000 0.374205 0.359880 -0.096692 68.343255 283.801106 -0.000000 0.076419 0.286448 -0.336339
0.205000 -24.300684 241.954518 -0.000000 0.374231 0.359873 -0.096698 68.123031 283.181518 -0.000000 0.076423 0.286474 -0.336344
0.210000 -24.551099 241.293563 -0.000000 0.374268 0.359831 -0.096699 67.544553 282.527766 -0.000000 0.076426 0.286198 -0.336353
0.215000 -24.701701 240.580048 -0.000000 0.374287 0.359798 -0.096692 67.141209 281.768737 -0.000000 0.076438 0.286230 -0.336358
0.220000 -24.905435 239.868048 -0.000000 0.374324 0.359780 -0.096694 66.737979 281.039563 -0.000000 0.076444 0.286290 -0.336364
0.225000 -25.105319 239.227914 -0.000000 0.374346 0.359739 -0.096681 66.403643 280.423441 -0.000000 0.076442 0.286323 -0.336370
0.230000 -25.226585 238.714985 -0.000000 0.374341 0.359689 -0.096661 66.214760 279.978589 -0.000000 0.076450 0.286364 -0.336371
0.235000 -25.229759 238.363908 -0.000000 0.374365 0.359649 -0.096661 66.161981 279.734793 -0.000000 0.076443 0.286410 -0.336373
0.240000 -25.054938 238.196270 -0.000000 0.374372 0.359554 -0.096668 66.208184 279.663986 -0.000000 0.076447 0.286474 -0.336374
0.245000 -24.811594 238.199551 -0.000000 0.374372 0.359498 -0.096655 66.121084 279.738672 -0.000000 0.076450 0.286524 -0.336366
0.250000 -24.457292 238.358924 -0.000000 0.374362 0.359381 -0.096663 65.953995 279.874339 -0.000000 0.076446 0.286578 -0.336375
0.255000 -24.149521 238.624933 -0.000000 0.374347 0.359313 -0.096666 65.670930 280.062009 -0.000000 0.076466 0.286636 -0.336370
0.260000 -23.905881 238.962573 -0.000000 0.374342 0.359237 -0.096650 65.435711 280.284859 -0.000000 0.076480 0.286691 -0.336376
0.265000 -23.784601 239.342205 -0.000000 0.374310 0.359171 -0.096664 65.258226 280.551996 -0.000000 0.076482 0.286738 -0.336390
0.270000 -23.785893 239.747709 -0.000000 0.374280 0.359102 -0.096658 65.095564 280.854162 -0.000000 0.076496 0.286777 -0.336391
